<svg width="71" height="70" viewBox="0 0 71 70" fill="currentColor" xmlns="http://www.w3.org/2000/svg">
<path d="M60.2487 27.4262C53.9021 20.9505 45.5471 17.27 36.617 16.9863V1.13974C36.617 0.510149 36.117 0 35.5 0C34.883 0 34.383 0.510149 34.383 1.13974V16.9861C25.4529 17.27 17.0979 20.9503 10.7513 27.426C4.1406 34.171 0.5 43.1393 0.5 52.6783L0.500149 68.8603C0.500149 69.4899 1.00028 70 1.61717 70H69.383C70 70 70.5 69.4899 70.5 68.8603V52.6783C70.5 43.1393 66.8594 34.171 60.2487 27.4262ZM25.903 56.6945C25.903 51.2951 30.2081 46.9023 35.5 46.9023C40.7919 46.9023 45.097 51.295 45.097 56.6945V67.7205H25.9031L25.903 56.6945ZM68.266 67.7205H54.7779V56.6945C54.7779 45.8485 46.1299 37.0245 35.5 37.0245C30.4551 37.0245 25.6811 39.0081 22.0572 42.6097C21.6153 43.0489 21.606 43.7704 22.0365 44.2213C22.0442 44.2293 22.0526 44.2362 22.0604 44.2439C22.4925 44.671 23.1818 44.674 23.6161 44.2423C26.8204 41.0577 31.0408 39.3038 35.5 39.3038C44.898 39.3038 52.5438 47.1051 52.5438 56.6943V67.7204H47.331V56.6943C47.331 50.0379 42.0237 44.6226 35.5 44.6226C28.9763 44.6226 23.669 50.0379 23.669 56.6943L23.6691 67.7204H18.4563L18.4562 56.6943C18.4562 53.4696 19.3325 50.3183 20.9905 47.5808C21.3088 47.0553 21.1571 46.3699 20.6552 46.0318C20.6459 46.0254 20.6371 46.0183 20.6274 46.0122C20.1027 45.6812 19.4143 45.8469 19.0901 46.3827C17.2138 49.4805 16.2221 53.0462 16.2221 56.6943L16.2223 67.7204H2.73419L2.73404 52.6783C2.73404 34.2435 17.4327 19.2459 35.5 19.2459C53.5673 19.2459 68.266 34.2435 68.266 52.6783V67.7205Z" fill="currentColor"/>
<path d="M39.3723 10.8123H43.3191V14.2315C43.3191 14.8611 43.8191 15.3713 44.4362 15.3713H59.4628C59.881 15.3713 60.2641 15.133 60.4557 14.7537C60.6473 14.3745 60.6151 13.9177 60.3725 13.5703L57.8556 9.96537L60.3725 6.36029C60.6151 6.01274 60.6473 5.55608 60.4557 5.17678C60.2641 4.79762 59.881 4.55934 59.4628 4.55934H48.6649V1.14011C48.6649 0.510515 48.1649 0.000366211 47.5479 0.000366211H39.3723C38.7553 0.000366211 38.2553 0.510515 38.2553 1.14011V9.67253C38.2553 10.302 38.7553 10.8123 39.3723 10.8123ZM55.5742 9.30402C55.2979 9.69973 55.2979 10.2309 55.5742 10.6266L57.2955 13.0918H45.5532V10.8123H47.5479C48.1649 10.8123 48.6649 10.3021 48.6649 9.67253V6.83868H57.2955L55.5742 9.30402ZM40.4894 2.2797H46.4309V5.69589C46.4309 5.70182 46.4309 8.53264 46.4309 8.53264H40.4894V2.2797Z" fill="currentColor"/>
</svg>
