<svg width="71" height="70" viewBox="0 0 71 70" fill="currentColor" xmlns="http://www.w3.org/2000/svg">
<path d="M35.5 0L25.7619 14.6603H19.5909V24.7221C19.5909 25.5999 19.8954 26.4907 20.492 27.1261C21.0948 27.755 21.94 28.076 22.7727 28.076L22.7727 36.4608H21.1818V33.1069H11.6364V36.4608H10.0455V33.1069H0.5L0.5 43.1686C0.5 44.0464 0.80451 44.9373 1.40732 45.5727C2.00391 46.2016 2.84908 46.5226 3.68182 46.5226L3.68182 70H67.3182V46.5226C68.1509 46.5226 68.9961 46.2016 69.5989 45.5727C70.1955 44.9373 70.5 44.0464 70.5 43.1686V33.1069L60.9546 33.1069V36.4608H59.3636V33.1069H49.8182V36.4608H48.2273V28.076C49.06 28.076 49.9052 27.755 50.508 27.1261C51.1046 26.4907 51.4091 25.5999 51.4091 24.7221V14.6603L45.2381 14.6603L35.5 0ZM35.5 5.84316L41.8636 15.4267V18.0142H40.2727V14.6603H30.7273V18.0142H29.1364V15.4267L35.5 5.84316ZM22.7727 18.0142H25.9545V21.3681L33.9091 21.3681V18.0142H37.0909V21.3681H45.0455V18.0142H48.2273V24.7221L22.7727 24.7221V18.0142ZM25.9545 28.076L45.0455 28.076V33.1069H38.6818V43.1686C38.6818 44.0464 38.9863 44.9373 39.5829 45.5727C40.1857 46.2016 41.0309 46.5226 41.8636 46.5226H64.1364L64.1364 66.6461H45.0455L45.0455 59.9382C45.0455 54.3637 40.7885 44.6538 35.5 44.6538C30.2115 44.6538 25.9546 50.0064 25.9546 55.581L25.9545 66.6461H6.86364L6.86364 46.5226H29.1364C29.9691 46.5226 30.8143 46.2016 31.4171 45.5727C32.0137 44.9373 32.3182 44.0464 32.3182 43.1686V33.1069H25.9545L25.9545 28.076ZM3.68182 36.4608H6.86364V39.8147H14.8182V36.4608H18V39.8147H25.9545V36.4608H29.1364V43.1686H3.68182V36.4608ZM41.8636 36.4608H45.0455V39.8147H53V36.4608H56.1818V39.8147H64.1364V36.4608L67.3182 36.4608V43.1686L41.8636 43.1686V36.4608ZM16.4091 51.5534C15.4521 51.5534 14.8182 52.2216 14.8182 53.2304V58.2613H18V53.2304C18 52.2216 17.3661 51.5534 16.4091 51.5534ZM54.5909 51.5534C53.6339 51.5534 53 52.2216 53 53.2304V58.2613H56.1818V53.2304C56.1818 52.2216 55.5479 51.5534 54.5909 51.5534ZM35.5 46.9953C39.1231 46.9953 41.8636 56.1192 41.8636 59.9382L41.8636 66.6461H29.1364V54.5129C29.1364 50.6939 31.877 46.9953 35.5 46.9953Z" fill="currentColor"/>
</svg>
