<?xml version="1.0"?><svg xmlns="http://www.w3.org/2000/svg" xmlns:xlink="http://www.w3.org/1999/xlink" version="1.1" viewBox="0 0 64 64" fill="currentColor" xml:space="preserve"><g id="flag"/><g id="dwarf"/><g id="weapon"/><g id="magic_potion"/><g id="magic_fire"/><g id="elf"/><g id="crown"/><g id="tower"><g><path d="M49,22h-3v-4h3c0.4,0,0.8-0.3,0.9-0.7c0.1-0.4,0-0.9-0.3-1.1l-17-13c-0.4-0.3-0.9-0.3-1.2,0l-17,13    c-0.3,0.3-0.5,0.7-0.3,1.1c0.1,0.4,0.5,0.7,0.9,0.7h3v4h-3c-0.6,0-1,0.4-1,1v9c0,0.6,0.4,1,1,1h3v22h-1c-0.6,0-1,0.4-1,1v4    c0,0.6,0.4,1,1,1h30c0.6,0,1-0.4,1-1v-4c0-0.6-0.4-1-1-1h-1V33h3c0.6,0,1-0.4,1-1v-9C50,22.4,49.6,22,49,22z M32,5.3L46,16h-1H19    h-1L32,5.3z M20,18h24v4h-3c-0.6,0-1,0.4-1,1v3h-3v-3c0-0.6-0.4-1-1-1h-8c-0.6,0-1,0.4-1,1v3h-3v-3c0-0.6-0.4-1-1-1h-3V18z M46,59    H18v-2h1h26h1V59z M44,55H20V33h24V55z M48,31h-3H19h-3v-7h6v3c0,0.6,0.4,1,1,1h5c0.6,0,1-0.4,1-1v-3h6v3c0,0.6,0.4,1,1,1h5    c0.6,0,1-0.4,1-1v-3h6V31z"/><path d="M23,46h6c0.6,0,1-0.4,1-1v-5c0-2.2-1.8-4-4-4s-4,1.8-4,4v5C22,45.6,22.4,46,23,46z M24,40c0-1.1,0.9-2,2-2s2,0.9,2,2v4h-4    V40z"/><path d="M35,46h6c0.6,0,1-0.4,1-1v-5c0-2.2-1.8-4-4-4s-4,1.8-4,4v5C34,45.6,34.4,46,35,46z M36,40c0-1.1,0.9-2,2-2s2,0.9,2,2v4h-4    V40z"/></g></g><g id="magic_broom"/><g id="knight"/><g id="magic_book"/><g id="unicorn"/><g id="wizard"/><g id="witch"/><g id="magic_wand"/><g id="queen"/><g id="forest"/><g id="home_tree"/><g id="king"/><g id="castle"/></svg>